HIERARCHY
ROOT Hips
{
	OFFSET 0.000000 0.000000 0.000000
	CHANNELS 6 Xposition Yposition Zposition Zrotation Yrotation Xrotation 
	JOINT LHipJoint
	{
		OFFSET 0.000000 0.000000 0.000000
		CHANNELS 3 Zrotation Yrotation Xrotation
		JOINT LeftUpLeg
		{
			OFFSET 1.363060 -1.794630 0.839290
			CHANNELS 3 Zrotation Yrotation Xrotation
			JOINT LeftLeg
			{
				OFFSET 2.448110 -6.726130 0.000000
				CHANNELS 3 Zrotation Yrotation Xrotation
				JOINT LeftFoot
				{
					OFFSET 2.562200 -7.039590 0.000000
					CHANNELS 3 Zrotation Yrotation Xrotation
					JOINT LeftToeBase
					{
						OFFSET 0.157640 -0.433110 2.322550
						CHANNELS 3 Zrotation Yrotation Xrotation
						End Site
						{
							OFFSET 0.000000 0.000000 0.000000
						}
					}
				}
			}
		}
	}
	JOINT RHipJoint
	{
		OFFSET 0.000000 0.000000 0.000000
		CHANNELS 3 Zrotation Yrotation Xrotation
		JOINT RightUpLeg
		{
			OFFSET -1.305520 -1.794630 0.839290
			CHANNELS 3 Zrotation Yrotation Xrotation
			JOINT RightLeg
			{
				OFFSET -2.542530 -6.985550 0.000000
				CHANNELS 3 Zrotation Yrotation Xrotation
				JOINT RightFoot
				{
					OFFSET -2.568260 -7.056230 0.000000
					CHANNELS 3 Zrotation Yrotation Xrotation
					JOINT RightToeBase
					{
						OFFSET -0.164730 -0.452590 2.363150
						CHANNELS 3 Zrotation Yrotation Xrotation
						End Site
						{
							OFFSET 0.000000 0.000000 0.000000
						}
					}
				}
			}
		}
	}
	JOINT LowerBack
	{
		OFFSET 0.000000 0.000000 0.000000
		CHANNELS 3 Zrotation Yrotation Xrotation
		JOINT Spine
		{
			OFFSET 0.028270 2.035590 -0.193380
			CHANNELS 3 Zrotation Yrotation Xrotation
			JOINT Spine1
			{
				OFFSET 0.056720 2.048850 -0.042750
				CHANNELS 3 Zrotation Yrotation Xrotation
				JOINT Neck
				{
					OFFSET 0.000000 0.000000 0.000000
					CHANNELS 3 Zrotation Yrotation Xrotation
					JOINT Neck1
					{
						OFFSET -0.054170 1.746240 0.172020
						CHANNELS 3 Zrotation Yrotation Xrotation
						JOINT Head
						{
							OFFSET 0.104070 1.761360 -0.123970
							CHANNELS 3 Zrotation Yrotation Xrotation
							End Site
							{
								OFFSET 0.000000 0.000000 0.000000
							}
						}
					}
				}
				JOINT LeftShoulder
				{
					OFFSET 0.000000 0.000000 0.000000
					CHANNELS 3 Zrotation Yrotation Xrotation
					JOINT LeftArm
					{
						OFFSET 3.362410 1.200890 -0.311210
						CHANNELS 3 Zrotation Yrotation Xrotation
						JOINT LeftForeArm
						{
							OFFSET 4.983000 -0.000000 -0.000000
							CHANNELS 3 Zrotation Yrotation Xrotation
							JOINT LeftHand
							{
								OFFSET 3.483560 -0.000000 -0.000000
								CHANNELS 3 Zrotation Yrotation Xrotation
								JOINT LeftFingerBase
								{
									OFFSET 0.000000 0.000000 0.000000
									CHANNELS 3 Zrotation Yrotation Xrotation
									JOINT LeftHandIndex1
									{
										OFFSET 0.715260 -0.000000 -0.000000
										CHANNELS 3 Zrotation Yrotation Xrotation
										End Site
										{
											OFFSET 0.000000 0.000000 0.000000
										}
									}
								}
								JOINT LThumb
								{
									OFFSET 0.000000 0.000000 0.000000
									CHANNELS 3 Zrotation Yrotation Xrotation
									End Site
									{
										OFFSET 0.000000 0.000000 0.000000
									}
								}
							}
						}
					}
				}
				JOINT RightShoulder
				{
					OFFSET 0.000000 0.000000 0.000000
					CHANNELS 3 Zrotation Yrotation Xrotation
					JOINT RightArm
					{
						OFFSET -3.136600 1.374050 -0.404650
						CHANNELS 3 Zrotation Yrotation Xrotation
						JOINT RightForeArm
						{
							OFFSET -5.241900 -0.000000 -0.000000
							CHANNELS 3 Zrotation Yrotation Xrotation
							JOINT RightHand
							{
								OFFSET -3.444170 -0.000000 -0.000000
								CHANNELS 3 Zrotation Yrotation Xrotation
								JOINT RightFingerBase
								{
									OFFSET 0.000000 0.000000 0.000000
									CHANNELS 3 Zrotation Yrotation Xrotation
									JOINT RightHandIndex1
									{
										OFFSET -0.622530 -0.000000 -0.000000
										CHANNELS 3 Zrotation Yrotation Xrotation
										End Site
										{
											OFFSET 0.000000 0.000000 0.000000
										}
									}
								}
								JOINT RThumb
								{
									OFFSET 0.000000 0.000000 0.000000
									CHANNELS 3 Zrotation Yrotation Xrotation
									End Site
									{
										OFFSET 0.000000 0.000000 0.000000
									}
								}
							}
						}
					}
				}
			}
		}
	}
}
MOTION
Frames: 6
Frame Time: 0.008333
3.248146 17.356280 -3.711099 -55.774740 85.601577 -50.727349 4.363310 1.490267 -0.734448 -15.899251 -27.738423 -3.652346 -1.242480 10.014987 26.968500 -3.037428 21.508101 -23.789480 1.280000 -7.169800 -20.219300 -8.696153 -1.257561 -1.837147 29.159508 21.916599 -1.116752 2.014570 -7.797028 21.928139 2.947663 -25.752030 -21.567461 -0.305100 3.551200 -9.817300 3.097794 1.148693 1.582068 1.407104 1.598870 -3.931687 -1.213140 0.474871 -1.149167 0.484440 1.774697 -14.062720 8.264518 1.741222 3.936389 1.320800 1.235400 6.191100 2.486114 -1.313157 -0.339169 -86.318262 5.248447 24.974267 11.175492 -17.639642 -2.812701 -0.552880 -2.317688 -21.966622 33.256653 51.471455 28.751900 -7.125000 0.000000 0.000000 -64.654100 85.162200 -60.190900 -2.904027 0.936698 -0.571192 85.107276 -3.426862 12.579800 -5.912068 12.462317 -0.676828 0.797913 -0.472341 5.526862 -23.159576 16.729175 -7.436000 7.125000 0.000000 0.000000 2.564900 -11.439800 2.007300 
3.249341 17.357276 -3.716976 -55.403428 85.586237 -50.365470 4.365477 1.493660 -0.735542 -15.819330 -27.207428 -3.906615 -1.215317 10.033665 27.021096 -2.997330 21.165633 -23.328738 1.324000 -7.287200 -20.569100 -8.702872 -1.256098 -1.838883 29.158732 21.923583 -1.071704 2.019785 -7.781134 21.896305 2.970754 -25.832720 -21.526195 -0.318100 3.625600 -10.025700 3.049879 1.134396 1.532620 1.403659 1.577658 -3.934196 -1.211201 0.464472 -1.121133 0.501986 1.769806 -14.094684 8.214953 1.727149 4.072263 1.293800 1.232200 6.270400 2.500627 -1.319893 -0.348181 -86.493250 5.009475 26.263515 11.537535 -18.138212 -2.942351 -0.508647 -2.350458 -22.917397 33.975858 51.975059 29.566300 -7.125000 0.000000 0.000000 -72.029100 85.503500 -67.688500 -2.909604 0.947052 -0.577248 85.187677 -3.128189 12.616723 -6.017705 12.641672 -0.705887 0.777579 -0.471380 6.415513 -22.796755 16.345562 -7.145000 7.125000 0.000000 0.000000 2.784200 -11.912000 2.152200 
3.250038 17.357575 -3.723550 -55.033832 85.566403 -50.014944 4.363701 1.499580 -0.732449 -15.802481 -26.949628 -4.013958 -1.201570 10.047795 27.064307 -2.956988 20.966400 -23.220506 1.334100 -7.313700 -20.648200 -8.704819 -1.253573 -1.842828 29.152266 21.922471 -1.014107 2.024897 -7.760312 21.855809 2.978321 -25.853964 -21.502252 -0.317100 3.619800 -10.009500 3.051179 1.140499 1.501410 1.384858 1.587306 -3.937040 -1.273125 0.468081 -1.106157 0.494112 1.734540 -14.106070 8.195102 1.682224 4.210434 1.289000 1.216400 6.345800 2.510094 -1.324471 -0.358703 -86.651139 4.744438 27.384070 11.914095 -18.642986 -3.073105 -0.471996 -2.366238 -23.504796 34.079073 52.326827 29.768600 -7.125000 0.000000 0.000000 -76.818800 85.517800 -72.403100 -2.923457 0.961659 -0.581861 85.355765 -2.804654 12.374267 -6.119192 12.827431 -0.736896 0.746931 -0.478395 7.508702 -22.160861 16.138726 -6.841900 7.125000 0.000000 0.000000 3.206900 -12.221600 2.459300 
3.249341 17.356878 -3.730024 -54.323225 85.532859 -49.316912 4.352864 1.508226 -0.724588 -15.812333 -26.877424 -4.041702 -1.198141 10.056678 27.087282 -2.918739 20.847197 -23.290641 1.267600 -7.136400 -20.120100 -8.713710 -1.244239 -1.849624 29.142758 21.948872 -0.970706 2.028723 -7.742877 21.821481 2.983551 -25.863646 -21.467798 -0.317600 3.622500 -10.017100 3.025532 1.143625 1.462125 1.369038 1.591950 -3.940933 -1.313564 0.470598 -1.087550 0.483822 1.682371 -14.138120 8.178748 1.615511 4.361290 1.284500 1.191400 6.433900 2.521011 -1.327820 -0.370301 -86.797951 4.493770 28.589666 12.314922 -19.175629 -3.209336 -0.442463 -2.369371 -24.063470 34.005833 52.401054 29.721300 -7.125000 0.000000 0.000000 -77.600700 85.475600 -73.131200 -2.938253 0.979152 -0.588326 85.541409 -2.431046 12.351200 -6.264484 13.086195 -0.779153 0.710932 -0.485243 8.399445 -21.319079 16.032431 -6.518000 7.125000 0.000000 0.000000 3.780400 -12.442000 2.883500 
3.247449 17.355881 -3.735403 -53.493274 85.484245 -48.508905 4.340013 1.518935 -0.713623 -15.804451 -26.811152 -4.064906 -1.193122 10.063305 27.104624 -2.883176 20.709111 -23.292732 1.174500 -6.878700 -19.356500 -8.729933 -1.234264 -1.855593 29.154962 21.993234 -0.913100 2.035214 -7.720158 21.772779 3.001872 -25.915102 -21.377759 -0.335700 3.723400 -10.299900 2.970187 1.125331 1.459355 1.368312 1.569771 -3.953153 -1.300305 0.460256 -1.122199 0.449101 1.694032 -14.125149 8.196529 1.641292 4.479603 1.305800 1.210700 6.493700 2.529207 -1.339101 -0.381961 -87.107251 4.096633 29.249643 12.548337 -19.465452 -3.286382 -0.448317 -2.362269 -23.993516 34.017106 52.298900 29.697800 -7.125000 0.000000 0.000000 -76.295500 85.492700 -71.863000 -2.947811 1.005633 -0.594044 85.655407 -2.012453 11.781905 -6.405435 13.349387 -0.824232 0.648834 -0.524141 10.510221 -20.080084 16.468580 -6.273700 7.125000 0.000000 0.000000 4.660400 -12.113300 3.590900 
3.243564 17.356878 -3.739287 -52.537278 85.463550 -47.562656 4.328750 1.526978 -0.704284 -15.738409 -26.415499 -4.277357 -1.174184 10.078570 27.140487 -2.830813 20.383659 -23.002498 1.173300 -6.875300 -19.346300 -8.745020 -1.223026 -1.857352 29.130106 22.040221 -0.875256 2.044047 -7.690843 21.705367 3.015138 -25.948348 -21.309257 -0.340400 3.749200 -10.372200 2.867342 1.087887 1.490145 1.372602 1.525694 -3.976694 -1.263930 0.437666 -1.204611 0.392508 1.743230 -14.126056 8.260073 1.725232 4.598930 1.358800 1.261400 6.557700 2.525103 -1.364682 -0.398885 -87.697479 3.300403 28.561995 12.418663 -19.231125 -3.231493 -0.516930 -2.334314 -22.451268 33.652263 52.064256 29.289600 -7.125000 0.000000 0.000000 -72.464500 85.355200 -67.968400 -2.956625 1.050977 -0.600079 85.751370 -1.556602 10.689419 -6.572638 13.665930 -0.879985 0.555803 -0.585837 13.805683 -18.422961 17.371933 -6.030200 7.125000 0.000000 0.000000 5.844100 -11.330800 4.606600 
